# xmcd CD database file
#
# Track frame offsets:
#	150
#	12860
#	29705
#	44588
#	55471
#	73104
#	88641
#	102010
#	116543
#	131286
#
# Disc length: 1930 seconds
#
# Revision: 0
# Processed by: cddbd v1.5.2PL0 Copyright (c) Steve Scherf et al.
# Submitted via: CDex 1.70beta1
#
DISCID=8607880a
DTITLE=Soul Tattoo - Pile of Bones
DYEAR=2005
DGENRE=Blues
TTITLE0=Jack in the Box
TTITLE1=Meeting Geronimo
TTITLE2=Pile of Bones
TTITLE3=Nero's Dreaming
TTITLE4=One More Moonlit Night
TTITLE5=Pale Lover Jim
TTITLE6=Damned Hands
TTITLE7=Robbie the Reaper
TTITLE8=Revenge of the Superhuman
TTITLE9=One Leg, Two-step
EXTD=YEAR: 2005
EXTT0=
EXTT1=
EXTT2=
EXTT3=
EXTT4=
EXTT5=
EXTT6=
EXTT7=
EXTT8=
EXTT9=
PLAYORDER=
